{"title":"Cars 2006 DVDrip Dutch English spoken Klam","uid":6536722,"size":2103633919,"categoryP":"video","categoryS":"movies","magnet":"?xt=urn:btih:07f14f6bd3c76c628a91eab4517006d60c4fb866&amp;dn=Cars+2006+DVDrip+Dutch+English+spoken+Klam&amp;tr=udp%3A%2F%2Ftracker.openbittorrent.com%3A80&amp;tr=udp%3A%2F%2Fopen.demonii.com%3A1337&amp;tr=udp%3A%2F%2Ftracker.coppersurfer.tk%3A6969&amp;tr=udp%3A%2F%2Fexodus.desync.com%3A6969","seeders":2,"leechers":0,"uploader":"Klambake","files":-1,"time":1310546359,"description":"Dutch or English spoken\n\nNederlandse uitvoering is met bekende Nederlandse stemmen.\nLightning McQueen is een ambitieuze nieuweling in de racewereld die onderweg is naar de finale van de Pistons Cup in California. Wanneer hij onverwachts een omweg moet maken door het slaperige Route 66 stadje: Radiator Springs, ontdekt hij dat het leven niet om de finishlijn gaat maar om de reis. Onderweg leert hij ongewone karakters kennen; Sally, een chique Porsche uit 2002, Doc Hudson (een Hudson Hornet uit 1951 met een mysterieus verleden) en Mater, een roestige maar betrouwbare sleepwagen. Zij helpen Lighting McQueen te realiseren dat er belangrijkere dingen in het leven zijn dan prijzen, reputatie, roem en sponsors.\n\nWith the voices of Owen Wilson, Paul Newman and Bonnie Hunt\nA hot-shot race-car named Lightning McQueen gets waylaid in Radiator Springs, where he finds the true meaning of friendship and family. \n\n------------------ Dutch Friends ------------------\nYou can find my Friends at: http://www.Film-Test.nl \n------ They got my dutchs subs ---- and more ------\n\nGeneral:\n\nComplete name                    : Cars\\Cars.avi\nFormat                           : AVI\nFormat/Info                      : Audio Video Interleave\nFile size                        : 1.96 GiB\nDuration                         : 1h 51mn\nOverall bit rate                 : 2 509 Kbps\n\nVideo:\n\nFormat                           : MPEG-4 Visual\nFormat profile                   : Simple@L3\nFormat settings, BVOP            : No\nFormat settings, QPel            : No\nFormat settings, GMC             : No warppoints\nFormat settings, Matrix          : Default (H.263)\nCodec ID                         : XVID\nCodec ID/Hint                    : XviD\nDuration                         : 1h 51mn\nBit rate                         : 1 725 Kbps\nWidth                            : 720 pixels\nHeight                           : 304 pixels\nDisplay aspect ratio             : 2.35:1\nFrame rate                       : 25.000 fps\nColor space                      : YUV\nChroma subsampling               : 4:2:0\nBit depth                        : 8 bits\nScan type                        : Progressive\nBits/(Pixel*Frame)               : 0.315\nStream size                      : 1.35 GiB (69%)\nWriting library                  : XviD 1.1.2 (UTC 2006-11-01)\n\nAudio's:\n\nFormat                           : AC-3\nFormat/Info                      : Audio Coding 3\nMode extension                   : CM (complete main)\nCodec ID                         : 2000\nDuration                         : 1h 51mn\nBit rate mode                    : Constant\nBit rate                         : 384 Kbps\nChannel(s)                       : 6 channels\nChannel positions                : Front: L C R, Side: L R, LFE\nSampling rate                    : 48.0 KHz\nBit depth                        : 16 bits\nStream size                      : 307 MiB (15%)\nAlignment                        : Aligned on interleaves\nInterleave, duration             : 32 ms (0.80 video frame)\nInterleave, preload duration     : 64 ms/32 ms\n\n\n\n\n","torrent":{"xt":"urn:btih:07f14f6bd3c76c628a91eab4517006d60c4fb866","amp;dn":"Cars+2006+DVDrip+Dutch+English+spoken+Klam","amp;tr":["udp%3A%2F%2Ftracker.openbittorrent.com%3A80","udp%3A%2F%2Fopen.demonii.com%3A1337","udp%3A%2F%2Ftracker.coppersurfer.tk%3A6969","udp%3A%2F%2Fexodus.desync.com%3A6969"],"infoHash":"07f14f6bd3c76c628a91eab4517006d60c4fb866","infoHashBuffer":{"type":"Buffer","data":[7,241,79,107,211,199,108,98,138,145,234,180,81,112,6,214,12,79,184,102]},"announce":[],"urlList":[]}}